<svg width="19" height="20" viewBox="0 0 19 20" fill="none" xmlns="http://www.w3.org/2000/svg">
<path fill-rule="evenodd" clip-rule="evenodd" d="M9.48008 0.72229C4.23784 0.72229 0 4.99137 0 10.2728C0 14.4945 2.71533 18.0682 6.48221 19.333C6.95317 19.428 7.12568 19.1275 7.12568 18.8746C7.12568 18.6532 7.11016 17.8943 7.11016 17.1035C4.47303 17.6729 3.92387 15.965 3.92387 15.965C3.50007 14.8582 2.87212 14.5737 2.87212 14.5737C2.00899 13.9887 2.93499 13.9887 2.93499 13.9887C3.89243 14.0519 4.39483 14.969 4.39483 14.969C5.24224 16.4236 6.60776 16.0126 7.15712 15.7595C7.23551 15.1429 7.48681 14.716 7.75362 14.4788C5.65032 14.2574 3.43739 13.4352 3.43739 9.76673C3.43739 8.72313 3.81384 7.86932 4.41035 7.20528C4.31624 6.96815 3.98655 5.98762 4.50466 4.67527C4.50466 4.67527 5.30511 4.42223 7.10996 5.6556C7.88268 5.44655 8.67958 5.3402 9.48008 5.3393C10.2805 5.3393 11.0965 5.4501 11.85 5.6556C13.655 4.42223 14.4555 4.67527 14.4555 4.67527C14.9736 5.98762 14.6437 6.96815 14.5496 7.20528C15.1618 7.86932 15.5228 8.72313 15.5228 9.76673C15.5228 13.4352 13.3098 14.2415 11.1908 14.4788C11.5362 14.7792 11.8343 15.3484 11.8343 16.2497C11.8343 17.5304 11.8188 18.5583 11.8188 18.8744C11.8188 19.1275 11.9915 19.428 12.4622 19.3332C16.2291 18.068 18.9444 14.4945 18.9444 10.2728C18.96 4.99137 14.7066 0.72229 9.48008 0.72229Z" fill="#131313"/>
</svg>
