<svg width="20" height="20" viewBox="0 0 20 20" fill="none" xmlns="http://www.w3.org/2000/svg">
<g clip-path="url(#clip0_179_111)">
<path d="M17.9806 0.72229H1.83711C1.06379 0.72229 0.438477 1.33281 0.438477 2.08762V18.2977C0.438477 19.0526 1.06379 19.6668 1.83711 19.6668H17.9806C18.7539 19.6668 19.383 19.0526 19.383 18.3014V2.08762C19.383 1.33281 18.7539 0.72229 17.9806 0.72229ZM6.05892 16.8658H3.24685V7.82277H6.05892V16.8658ZM4.65288 6.59064C3.75006 6.59064 3.02114 5.86172 3.02114 4.9626C3.02114 4.06348 3.75006 3.33456 4.65288 3.33456C5.55201 3.33456 6.28093 4.06348 6.28093 4.9626C6.28093 5.85802 5.55201 6.59064 4.65288 6.59064ZM16.582 16.8658H13.7736V12.4701C13.7736 11.423 13.7551 10.0724 12.3121 10.0724C10.8505 10.0724 10.6285 11.2158 10.6285 12.3961V16.8658H7.82387V7.82277H10.5175V9.0586H10.5545C10.9282 8.34818 11.8459 7.59707 13.2112 7.59707C16.0566 7.59707 16.582 9.46931 16.582 11.904V16.8658Z" fill="#131313"/>
</g>
<defs>
<clipPath id="clip0_179_111">
<rect width="18.9445" height="18.9445" fill="white" transform="translate(0.438477 0.72229)"/>
</clipPath>
</defs>
</svg>
